Coordinates
version=1
nRows=28
nColumns=38
inDegrees=no

Units are S.I. units (second, meters, Newtons, ...)
If the header above contains a line with 'inDegrees', this indicates whether rotational values are in degrees (yes) or radians (no).

endheader
time	pelvis_tilt	pelvis_list	pelvis_rotation	pelvis_tx	pelvis_ty	pelvis_tz	hip_flexion_r	hip_adduction_r	hip_rotation_r	knee_angle_r	ankle_angle_r	subtalar_angle_r	mtp_angle_r	hip_flexion_l	hip_adduction_l	hip_rotation_l	knee_angle_l	ankle_angle_l	subtalar_angle_l	mtp_angle_l	lumbar_extension	lumbar_bending	lumbar_rotation	arm_flex_r	arm_add_r	arm_rot_r	elbow_flex_r	pro_sup_r	wrist_flex_r	wrist_dev_r	arm_flex_l	arm_add_l	arm_rot_l	elbow_flex_l	pro_sup_l	wrist_flex_l	wrist_dev_l
25	0.370918	1.17567	1.12557	1.35449	-0.159876	0.928482	0.878132	-0.0315698	-0.397996	0.435291	-0.270105	0	0	0.436752	-0.189614	0.333945	1.1056	-0.277784	0	0	-0.605682	0.168893	-0.017595	0.51298	-0.513881	0.146033	0.474599	0.750721	0	0	0.0865073	-0.244734	-0.123869	1.2159	1.5708	0	0
25.01	0.389646	1.1606	1.09767	1.3619	-0.153797	0.926974	0.90922	-0.0442172	-0.511887	0.512835	-0.283816	0	0	0.473683	-0.209772	0.335139	1.1561	-0.323432	0	0	-0.625701	0.171827	0.00883011	0.548778	-0.526988	0.16364	0.472611	0.762559	0	0	0.0809116	-0.237122	-0.151135	1.22477	1.5708	0	0
25.02	0.419278	1.17835	1.07693	1.36777	-0.14614	0.925957	0.899567	-0.0466982	-0.498942	0.553607	-0.264415	0	0	0.479324	-0.211019	0.342496	1.20446	-0.381904	0	0	-0.678626	0.173107	0.0239913	0.505018	-0.515814	-0.044154	0.588611	1.02531	0	0	0.0816058	-0.234207	-0.170852	1.24172	1.5708	0	0
25.03	0.50557	1.24991	1.02463	1.37136	-0.137719	0.928404	0.831606	-0.0406271	-0.366021	0.576964	-0.211869	0	0	0.426407	-0.189842	0.363431	1.24525	-0.433038	0	0	-0.787866	0.169807	0.00238688	0.544017	-0.519513	-0.0457518	0.60944	1.03207	0	0	0.0740351	-0.238389	-0.215642	1.29264	1.5708	0	0
25.04	0.43199	1.19303	1.09595	1.37871	-0.127395	0.917694	0.911855	-0.0348396	-0.348954	0.626157	-0.190181	0	0	0.523827	-0.196783	0.370248	1.30507	-0.475402	0	0	-0.715394	0.177662	0.0145572	0.555228	-0.528975	-0.0349856	0.572233	1.04	0	0	0.06106	-0.228555	-0.219577	1.24033	1.5708	0	0
25.05	0.423919	1.17337	1.1095	1.38497	-0.118642	0.911762	0.9432	-0.0322096	-0.343474	0.667406	-0.164817	0	0	0.57632	-0.201213	0.381438	1.3579	-0.513554	0	0	-0.701096	0.183957	0.0240748	0.578768	-0.537653	-0.0301562	0.550762	1.04604	0	0	0.0569405	-0.220577	-0.23472	1.21301	1.5708	0	0
25.06	0.435259	1.16837	1.10662	1.39083	-0.110064	0.907697	0.954506	-0.0303899	-0.342889	0.70337	-0.141833	0	0	0.6114	-0.20537	0.391105	1.40926	-0.524789	0	0	-0.707559	0.189281	0.0344912	0.605581	-0.547529	-0.024733	0.533448	1.05062	0	0	0.0592203	-0.213324	-0.250364	1.18897	1.5708	0	0
25.07	0.452076	1.16846	1.10281	1.39627	-0.101358	0.904238	0.957712	-0.0318987	-0.346924	0.73644	-0.115545	0	0	0.641136	-0.20666	0.401402	1.46144	-0.492894	0	0	-0.718792	0.195751	0.0441848	0.631445	-0.557794	-0.0212847	0.516108	1.05609	0	0	0.0665709	-0.207074	-0.262065	1.16128	1.5708	0	0
25.08	0.468369	1.17058	1.10194	1.40155	-0.0925553	0.900858	0.957536	-0.0364166	-0.354092	0.768372	-0.0852519	0	0	0.669234	-0.205037	0.409008	1.51479	-0.427178	0	0	-0.736236	0.201902	0.0472146	0.660059	-0.563489	-0.0223635	0.505132	1.06294	0	0	0.0697365	-0.201368	-0.282033	1.14287	1.5708	0	0
25.09	0.482378	1.17471	1.1037	1.40659	-0.0837847	0.898121	0.954069	-0.0427128	-0.361822	0.797958	-0.0551387	0	0	0.695004	-0.200166	0.411737	1.5639	-0.357237	0	0	-0.754102	0.206009	0.0522098	0.685937	-0.571486	-0.0240529	0.493046	1.06949	0	0	0.0792302	-0.195642	-0.297408	1.11777	1.5708	0	0
25.1	0.495559	1.17597	1.1083	1.41159	-0.0752721	0.895155	0.952092	-0.0502469	-0.373285	0.826272	-0.0311443	0	0	0.725624	-0.194438	0.412484	1.60723	-0.303466	0	0	-0.770866	0.211881	0.0525738	0.716565	-0.577059	-0.0150586	0.480321	1.07401	0	0	0.0853237	-0.190701	-0.317691	1.09721	1.5708	0	0
25.11	0.512544	1.20074	1.06164	1.42201	-0.0678304	0.896412	0.931445	-0.0166669	-0.337753	0.842576	-0.0140035	0	0	0.719284	-0.222594	0.355502	1.633	-0.25397	0	0	-0.816769	0.170182	0.0723961	0.856666	-0.586235	0.282608	0.317761	0.871717	0	0	0.0913415	-0.191059	-0.349444	1.09276	1.5708	0	0
25.12	0.54976	1.21357	1.02508	1.42851	-0.0586691	0.896527	0.909606	-0.00490651	-0.339876	0.858423	0.0111855	0	0	0.728813	-0.234972	0.33174	1.65515	-0.205855	0	0	-0.848882	0.161839	0.0851056	0.933279	-0.557853	0.679985	0.232824	1.5708	0	0	0.102258	-0.18609	-0.369082	1.06991	1.5708	0	0
25.13	0.614822	1.23583	0.950077	1.43672	-0.0484884	0.899	0.870171	0.0207164	-0.334831	0.866057	0.0335765	0	0	0.719627	-0.265182	0.288335	1.66544	-0.161252	0	0	-0.900242	0.139471	0.12297	0.953274	-0.572062	0.65012	0.227617	1.5708	0	0	0.127187	-0.179796	-0.374783	1.04628	1.5708	0	0
25.14	0.655	1.25151	0.905137	1.44399	-0.0383469	0.900173	0.842614	0.0353069	-0.330437	0.87681	0.0571462	0	0	0.72331	-0.283428	0.249081	1.672	-0.123307	0	0	-0.937329	0.120558	0.145183	0.975125	-0.580909	0.62865	0.223061	1.5708	0	0	0.145409	-0.17521	-0.383178	1.02153	1.5708	0	0
25.15	0.672185	1.24861	0.896446	1.44947	-0.0295523	0.898145	0.838631	0.0412081	-0.337562	0.891796	0.0788474	0	0	0.75981	-0.290133	0.234875	1.68226	-0.0970326	0	0	-0.950565	0.119408	0.159115	0.992849	-0.590628	0.61407	0.225186	1.5708	0	0	0.155841	-0.168742	-0.392741	0.99826	1.5708	0	0
25.16	0.669037	1.25136	0.904782	1.4547	-0.0206005	0.896295	0.834948	0.0411772	-0.337545	0.908551	0.100343	0	0	0.791326	-0.288467	0.213459	1.68471	-0.0779481	0	0	-0.963474	0.111616	0.162909	1.01587	-0.595019	0.606836	0.225133	1.5708	0	0	0.161799	-0.164612	-0.403865	0.978948	1.5708	0	0
25.17	0.665765	1.24217	0.922111	1.45952	-0.0122806	0.892549	0.842299	0.0407151	-0.347156	0.925453	0.122157	0	0	0.842664	-0.286098	0.203609	1.68601	-0.0671477	0	0	-0.963164	0.11692	0.16431	1.03616	-0.597793	0.599045	0.229789	1.5708	0	0	0.160722	-0.16176	-0.413729	0.962517	1.5708	0	0
25.18	0.64916	1.23513	0.954662	1.46359	-0.00409906	0.888618	0.851017	0.0329562	-0.355649	0.943603	0.133011	0	0	0.890195	-0.270036	0.2056	1.67966	-0.058886	0	0	-0.959882	0.122217	0.156484	1.06465	-0.595504	0.62157	0.224848	1.5708	0	0	0.155389	-0.161736	-0.420415	0.949151	1.5708	0	0
25.19	0.622462	1.22143	1.00697	1.46547	0.00350764	0.882995	0.868435	0.0133982	-0.373512	0.966216	0.159244	0	0	0.94927	-0.239265	0.213188	1.66974	-0.0531215	0	0	-0.94702	0.136554	0.14844	1.03505	-0.612242	0.47108	0.310438	1.5708	0	0	0.149604	-0.158225	-0.41887	0.937839	1.5708	0	0
25.2	0.555788	1.19467	1.12922	1.46401	0.0124742	0.873998	0.902756	-0.0456256	-0.414062	1.00273	0.188696	0	0	1.03078	-0.168656	0.219508	1.65296	-0.053099	0	0	-0.900725	0.175202	0.106284	1.07001	-0.606787	0.546944	0.271823	1.5708	0	0	0.137525	-0.161697	-0.408146	0.903575	1.5708	0	0
25.21	0.576654	1.20116	1.10254	1.46962	0.0231842	0.872105	0.887201	-0.0313712	-0.414624	1.01491	0.205297	0	0	1.05708	-0.21658	0.150395	1.63481	-0.0613884	0	0	-0.915908	0.165584	0.113692	1.08444	-0.607733	0.530665	0.29563	1.5708	0	0	0.126989	-0.162159	-0.405581	0.893636	1.5708	0	0
25.22	0.595495	1.20539	1.08921	1.47382	0.0328693	0.870365	0.873107	-0.0274581	-0.423594	1.02652	0.223733	0	0	1.07534	-0.214613	0.135494	1.60476	-0.0552677	0	0	-0.929535	0.162425	0.12101	1.07886	-0.617216	0.443107	0.348762	1.5708	0	0	0.120728	-0.160929	-0.39696	0.887331	1.5708	0	0
25.23	0.607534	1.20474	1.08325	1.47788	0.0429321	0.867927	0.864436	-0.0246119	-0.433324	1.039	0.239674	0	0	1.09776	-0.209945	0.123433	1.57258	-0.0481846	0	0	-0.935788	0.161176	0.127905	1.0565	-0.622336	0.313403	0.421718	1.5708	0	0	0.113847	-0.160856	-0.382631	0.875372	1.5708	0	0
25.24	0.613837	1.20206	1.08149	1.48197	0.0533697	0.865187	0.85859	-0.0213435	-0.441041	1.05184	0.254497	0	0	1.12175	-0.206416	0.104535	1.53893	-0.0444345	0	0	-0.936942	0.160577	0.132277	1.03953	-0.618209	0.211549	0.480212	1.5708	0	0	0.105877	-0.162409	-0.364656	0.85724	1.5708	0	0
25.25	0.624033	1.20212	1.07525	1.48582	0.063831	0.862877	0.849096	-0.0172882	-0.447811	1.06377	0.271383	0	0	1.14062	-0.202652	0.0841263	1.50403	-0.0423463	0	0	-0.942219	0.159392	0.143275	1.01327	-0.615313	0.0974217	0.548081	1.5708	0	0	0.102471	-0.165458	-0.332759	0.837289	1.5708	0	0
25.26	0.647983	1.20945	1.06746	1.48761	0.071612	0.861103	0.832639	-0.0232736	-0.461574	1.07745	0.283805	0	0	1.13935	-0.137484	0.143525	1.45635	-0.0192319	0	0	-0.992723	0.203467	0.216574	0.837488	-0.904699	0.226344	0.964598	1.53031	0	0	0.163124	-0.196269	-0.109396	0.759284	1.5708	0	0
25.27	0.645332	1.20215	1.06047	1.49256	0.0846036	0.858294	0.830478	-0.00791811	-0.458058	1.08737	0.295675	0	0	1.1731	-0.192336	0.0401333	1.43257	-0.0434431	0	0	-0.949157	0.159044	0.156112	0.998971	-0.610669	0.0112454	0.636409	1.5708	0	0	0.0892377	-0.167735	-0.28147	0.799618	1.5708	0	0
